<?xml version="1.0" standalone="no"?>
<!DOCTYPE svg PUBLIC "-//W3C//DTD SVG 1.1//EN" "http://www.w3.org/Graphics/SVG/1.1/DTD/svg11.dtd" >
<svg xmlns="http://www.w3.org/2000/svg">
<metadata></metadata>
<defs>
<font id="homespun_tt_brkregular" horiz-adv-x="1024" >
<font-face units-per-em="2048" ascent="1638" descent="-410" />
<missing-glyph horiz-adv-x="500" />
<glyph horiz-adv-x="2048" />
<glyph horiz-adv-x="2048" />
<glyph unicode="&#xd;" horiz-adv-x="2048" />
<glyph unicode=" " />
<glyph unicode="!" horiz-adv-x="409" d="M0 0v205h205v-205h-205zM0 410v1024h205v-1024h-205z" />
<glyph unicode="&#x22;" horiz-adv-x="819" d="M0 1024v410h205v-410h-205zM410 1024v410h204v-410h-204z" />
<glyph unicode="#" horiz-adv-x="1228" d="M0 410v204h205v205h-205v205h205v410h205v-410h204v410h205v-410h205v-205h-205v-205h205v-204h-205v-410h-205v410h-204v-410h-205v410h-205zM410 614h204v205h-204v-205z" />
<glyph unicode="$" d="M0 0v410h205v-205h409v409h-614v820h205v204h205v-204h409v-410h-205v205h-409v-410h614v-819h-205v-203h-204v203h-410z" />
<glyph unicode="%" horiz-adv-x="1228" d="M0 0v410h205v-410h-205zM0 1024v410h410v-410h-410zM205 410v204h205v-204h-205zM410 614v205h204v-205h-204zM614 0v410h410v-410h-410zM614 819v205h205v-205h-205zM819 1024v410h205v-410h-205z" />
<glyph unicode="&#x26;" d="M0 0v1434h205v204h205v-204h409v-410h-205v205h-409v-410h409v-205h-409v-409h409v205h205v-410h-409v-203h-205v203h-205z" />
<glyph unicode="'" horiz-adv-x="409" d="M0 1024v410h205v-410h-205z" />
<glyph unicode="(" horiz-adv-x="614" d="M0 205v1024h205v-1024h205v-205h-205v205h-205zM205 1229v205h205v-205h-205z" />
<glyph unicode=")" horiz-adv-x="614" d="M0 0v205h205v-205h-205zM0 1229v205h205v-205h205v-1024h-205v1024h-205z" />
<glyph unicode="*" horiz-adv-x="1228" d="M0 614v205h205v-205h-205zM0 1024v205h205v-205h205v410h204v-410h205v-205h205v-205h-205v205h-205v-409h-204v409h-205v205h-205zM819 1024v205h205v-205h-205z" />
<glyph unicode="+" horiz-adv-x="1228" d="M0 614v205h410v410h204v-410h410v-205h-410v-409h-204v409h-410z" />
<glyph unicode="," horiz-adv-x="409" d="M0 -203v408h205v-408h-205z" />
<glyph unicode="-" d="M0 614v205h819v-205h-819z" />
<glyph unicode="." horiz-adv-x="409" d="M0 0v205h205v-205h-205z" />
<glyph unicode="/" horiz-adv-x="1228" d="M0 0v410h205v-410h-205zM205 410v204h205v-204h-205zM410 614v205h204v-205h-204zM614 819v205h205v-205h-205zM819 1024v410h205v-410h-205z" />
<glyph unicode="0" d="M0 0v1434h819v-1434h-819zM205 205h409v1024h-409v-1024z" />
<glyph unicode="1" horiz-adv-x="614" d="M0 1229v205h410v-1434h-205v1229h-205z" />
<glyph unicode="2" d="M0 0v819h614v410h-409v-205h-205v410h819v-820h-614v-409h409v205h205v-410h-819z" />
<glyph unicode="3" d="M0 0v410h205v-205h409v409h-409v205h409v410h-409v-205h-205v410h819v-1434h-819z" />
<glyph unicode="4" d="M0 614v820h205v-615h409v615h205v-1434h-205v614h-614z" />
<glyph unicode="5" d="M0 0v410h205v-205h409v409h-614v820h819v-410h-205v205h-409v-410h614v-819h-819z" />
<glyph unicode="6" d="M0 0v1434h819v-410h-205v205h-409v-410h614v-819h-819zM205 205h409v409h-409v-409z" />
<glyph unicode="7" d="M0 1024v410h819v-1434h-205v1229h-409v-205h-205z" />
<glyph unicode="8" d="M0 0v1434h819v-1434h-819zM205 205h409v409h-409v-409zM205 819h409v410h-409v-410z" />
<glyph unicode="9" d="M0 614v820h819v-1434h-205v614h-614zM205 819h409v410h-409v-410z" />
<glyph unicode=":" horiz-adv-x="409" d="M0 0v205h205v-205h-205zM0 1229v205h205v-205h-205z" />
<glyph unicode=";" horiz-adv-x="409" d="M0 -203v408h205v-408h-205zM0 1229v205h205v-205h-205z" />
<glyph unicode="&#x3c;" horiz-adv-x="819" d="M0 614v205h205v-205h205v-204h204v-205h-204v205h-205v204h-205zM205 819v205h205v-205h-205zM410 1024v205h204v-205h-204z" />
<glyph unicode="=" d="M0 410v204h819v-204h-819zM0 819v205h819v-205h-819z" />
<glyph unicode="&#x3e;" horiz-adv-x="819" d="M0 205v205h205v-205h-205zM0 1024v205h205v-205h205v-205h204v-205h-204v205h-205v205h-205zM205 410v204h205v-204h-205z" />
<glyph unicode="?" d="M0 1024v410h819v-820h-409v-204h-205v409h409v410h-409v-205h-205zM205 0v205h205v-205h-205z" />
<glyph unicode="@" horiz-adv-x="1228" d="M0 0v1434h1024v-1024h-614v614h409v205h-614v-1024h819v-205h-1024zM614 614h205v205h-205v-205z" />
<glyph unicode="A" d="M0 0v1434h819v-1434h-205v614h-409v-614h-205zM205 819h409v410h-409v-410z" />
<glyph unicode="B" d="M0 0v1434h819v-615h-205v-205h205v-614h-819zM205 205h409v409h-409v-409zM205 819h409v410h-409v-410z" />
<glyph unicode="C" d="M0 0v1434h819v-410h-205v205h-409v-1024h409v205h205v-410h-819z" />
<glyph unicode="D" d="M0 0v1434h614v-205h205v-1024h-205v-205h-614zM205 205h409v1024h-409v-1024z" />
<glyph unicode="E" d="M0 0v1434h819v-410h-205v205h-409v-410h409v-205h-409v-409h409v205h205v-410h-819z" />
<glyph unicode="F" d="M0 0v1434h819v-410h-205v205h-409v-410h409v-205h-409v-614h-205z" />
<glyph unicode="G" d="M0 0v1434h819v-410h-205v205h-409v-1024h409v409h-204v205h409v-819h-819z" />
<glyph unicode="H" d="M0 0v1434h205v-615h409v615h205v-1434h-205v614h-409v-614h-205z" />
<glyph unicode="I" horiz-adv-x="819" d="M0 0v205h205v1024h-205v205h614v-205h-204v-1024h204v-205h-614z" />
<glyph unicode="J" d="M0 0v410h205v-205h409v1229h205v-1434h-819z" />
<glyph unicode="K" d="M0 0v1434h205v-615h409v-205h205v-614h-205v614h-409v-614h-205zM614 819v615h205v-615h-205z" />
<glyph unicode="L" d="M0 0v1434h205v-1229h409v205h205v-410h-819z" />
<glyph unicode="M" horiz-adv-x="1638" d="M0 0v1434h1434v-1434h-205v1229h-410v-1229h-205v1229h-409v-1229h-205z" />
<glyph unicode="N" d="M0 0v1434h819v-1434h-205v1229h-409v-1229h-205z" />
<glyph unicode="O" d="M0 0v1434h819v-1434h-819zM205 205h409v1024h-409v-1024z" />
<glyph unicode="P" d="M0 0v1434h819v-820h-614v-614h-205zM205 819h409v410h-409v-410z" />
<glyph unicode="Q" d="M0 0v1434h819v-1434h-205v-203h-204v203h-410zM205 205h409v1024h-409v-1024z" />
<glyph unicode="R" d="M0 0v1434h819v-615h-205v-205h205v-614h-205v614h-409v-614h-205zM205 819h409v410h-409v-410z" />
<glyph unicode="S" d="M0 0v410h205v-205h409v409h-614v820h819v-410h-205v205h-409v-410h614v-819h-819z" />
<glyph unicode="T" horiz-adv-x="1228" d="M0 1229v205h1024v-205h-410v-1229h-204v1229h-410z" />
<glyph unicode="U" d="M0 0v1434h205v-1229h409v1229h205v-1434h-819z" />
<glyph unicode="V" d="M0 0v1434h205v-1024h205v-205h-205v-205h-205zM410 410v204h204v-204h-204zM614 614v820h205v-820h-205z" />
<glyph unicode="W" horiz-adv-x="1638" d="M0 0v1434h205v-1229h409v1229h205v-1229h410v1229h205v-1434h-1434z" />
<glyph unicode="X" d="M0 0v614h205v-614h-205zM0 819v615h205v-615h409v-205h205v-614h-205v614h-409v205h-205zM614 819v615h205v-615h-205z" />
<glyph unicode="Y" d="M0 0v410h205v-205h409v409h-614v820h205v-615h409v615h205v-1434h-819z" />
<glyph unicode="Z" d="M0 0v614h205v-409h614v-205h-819zM0 1229v205h819v-615h-205v410h-614zM205 614v205h409v-205h-409z" />
<glyph unicode="[" horiz-adv-x="614" d="M0 0v1434h410v-205h-205v-1024h205v-205h-410z" />
<glyph unicode="\" horiz-adv-x="1228" d="M0 1024v410h205v-410h205v-205h204v-205h205v-204h205v-410h-205v410h-205v204h-204v205h-205v205h-205z" />
<glyph unicode="]" horiz-adv-x="614" d="M0 0v205h205v1024h-205v205h410v-1434h-410z" />
<glyph unicode="^" horiz-adv-x="1228" d="M0 819v205h205v-205h-205zM205 1024v205h205v-205h-205zM410 1229v205h204v-205h205v-205h205v-205h-205v205h-205v205h-204z" />
<glyph unicode="_" d="M0 0h819v-203h-819v203z" />
<glyph unicode="`" horiz-adv-x="409" d="M0 1024v410h205v-410h-205z" />
<glyph unicode="a" d="M0 0v614h614v205h-614v205h819v-1024h-819zM205 205h409v205h-409v-205z" />
<glyph unicode="b" d="M0 0v1434h205v-410h614v-1024h-819zM205 205h409v614h-409v-614z" />
<glyph unicode="c" d="M0 0v1024h819v-410h-205v205h-409v-614h409v205h205v-410h-819z" />
<glyph unicode="d" d="M0 0v1024h614v410h205v-1434h-819zM205 205h409v614h-409v-614z" />
<glyph unicode="e" d="M0 0v1024h819v-614h-614v-205h614v-205h-819zM205 614h409v205h-409v-205z" />
<glyph unicode="f" d="M0 0v1434h819v-205h-614v-205h409v-205h-409v-819h-205z" />
<glyph unicode="g" d="M0 0h614v205h-614v819h819v-1227h-819v203zM205 410h409v409h-409v-409z" />
<glyph unicode="h" d="M0 0v1434h205v-410h614v-1024h-205v819h-409v-819h-205z" />
<glyph unicode="i" horiz-adv-x="409" d="M0 0v1024h205v-1024h-205zM0 1229v205h205v-205h-205z" />
<glyph unicode="j" horiz-adv-x="614" d="M0 0h205v1024h205v-1227h-410v203zM205 1229v205h205v-205h-205z" />
<glyph unicode="k" d="M0 0v1434h205v-410h409v-205h205v-819h-205v819h-409v-819h-205zM614 1024v205h205v-205h-205z" />
<glyph unicode="l" horiz-adv-x="409" d="M0 0v1434h205v-1434h-205z" />
<glyph unicode="m" horiz-adv-x="1638" d="M0 0v1024h1434v-1024h-205v819h-410v-819h-205v819h-409v-819h-205z" />
<glyph unicode="n" d="M0 0v1024h819v-1024h-205v819h-409v-819h-205z" />
<glyph unicode="o" d="M0 0v1024h819v-1024h-819zM205 205h409v614h-409v-614z" />
<glyph unicode="p" d="M0 -203v1227h819v-1024h-614v-203h-205zM205 205h409v614h-409v-614z" />
<glyph unicode="q" d="M0 0v1024h819v-1227h-205v203h-614zM205 205h409v614h-409v-614z" />
<glyph unicode="r" d="M0 0v1024h819v-410h-205v205h-409v-819h-205z" />
<glyph unicode="s" d="M0 0v205h614v205h-614v614h819v-205h-614v-205h614v-614h-819z" />
<glyph unicode="t" d="M0 0v1434h205v-410h409v-205h-409v-614h409v205h205v-410h-819z" />
<glyph unicode="u" d="M0 0v1024h205v-819h409v819h205v-1024h-819z" />
<glyph unicode="v" d="M0 0v1024h205v-614h205v-205h-205v-205h-205zM410 410v204h204v-204h-204zM614 614v410h205v-410h-205z" />
<glyph unicode="w" horiz-adv-x="1638" d="M0 0v1024h205v-819h409v819h205v-819h410v819h205v-1024h-1434z" />
<glyph unicode="x" d="M0 0v410h205v-410h-205zM0 614v410h205v-410h409v-204h205v-410h-205v410h-409v204h-205zM614 614v410h205v-410h-205z" />
<glyph unicode="y" d="M0 0h614v205h-614v819h205v-614h409v614h205v-1227h-819v203z" />
<glyph unicode="z" d="M0 0v410h205v-205h614v-205h-819zM0 819v205h819v-410h-205v205h-614zM205 410v204h409v-204h-409z" />
<glyph unicode="{" horiz-adv-x="819" d="M0 614v205h205v410h205v-1024h204v-205h-204v205h-205v409h-205zM410 1229v205h204v-205h-204z" />
<glyph unicode="|" horiz-adv-x="409" d="M0 -203v1841h205v-1841h-205z" />
<glyph unicode="}" horiz-adv-x="819" d="M0 0v205h205v-205h-205zM0 1229v205h205v-205h205v-410h204v-205h-204v-409h-205v1024h-205z" />
<glyph unicode="~" horiz-adv-x="1228" d="M0 410v614h614v-410h205v410h205v-614h-614v409h-205v-409h-205z" />
<glyph d="M0 0v1434h819v-1434h-819z" />
<glyph d="M0 0v1434h819v-1434h-819z" />
<glyph d="M0 0v1434h819v-1434h-819z" />
<glyph d="M0 0v1434h819v-1434h-819z" />
<glyph d="M0 0v1434h819v-1434h-819z" />
<glyph d="M0 0v1434h819v-1434h-819z" />
<glyph d="M0 0v1434h819v-1434h-819z" />
<glyph d="M0 0v1434h819v-1434h-819z" />
<glyph d="M0 0v1434h819v-1434h-819z" />
<glyph unicode="&#xa0;" />
<glyph unicode="&#xa1;" horiz-adv-x="409" d="M0 0v1024h205v-1024h-205zM0 1229v205h205v-205h-205z" />
<glyph unicode="&#xa2;" d="M0 0v1024h205v205h205v-205h409v-410h-205v205h-409v-614h409v205h205v-410h-409v-203h-205v203h-205z" />
<glyph unicode="&#xa3;" d="M0 0v205h205v409h-205v205h205v615h614v-410h-205v205h-204v-410h204v-205h-204v-409h204v205h205v-410h-819z" />
<glyph unicode="&#xa4;" horiz-adv-x="1228" d="M0 614v205h205v205h205v205h204v-205h205v-205h205v-205h-205v-204h-205v-205h-204v205h-205v204h-205zM410 614h204v205h-204v-205z" />
<glyph unicode="&#xa5;" horiz-adv-x="1228" d="M0 0v205h410v205h-410v204h410v205h-410v615h205v-410h614v410h205v-615h-410v-205h410v-204h-410v-205h410v-205h-1024z" />
<glyph unicode="&#xa6;" horiz-adv-x="409" d="M0 -203v817h205v-817h-205zM0 819v819h205v-819h-205z" />
<glyph unicode="&#xa7;" d="M0 -203v408h205v-205h409v410h-614v1228h819v-409h-205v205h-409v-410h614v-1227h-819zM205 614h409v205h-409v-205z" />
<glyph unicode="&#xa8;" d="M0 1638v205h205v-205h-205zM614 1638v205h205v-205h-205z" />
<glyph unicode="&#xa9;" horiz-adv-x="1433" d="M0 0v1434h1229v-1434h-1229zM205 205h819v1024h-819v-1024zM410 410v614h409v-205h-205v-205h205v-204h-409z" />
<glyph unicode="&#xaa;" horiz-adv-x="819" d="M0 819v615h410v204h-410v205h614v-1024h-614zM205 1024h205v205h-205v-205z" />
<glyph unicode="&#xab;" d="M0 614v205h205v-205h205v-204h-205v204h-205zM205 819v205h205v-205h204v-205h205v-204h-205v204h-204v205h-205zM614 819v205h205v-205h-205z" />
<glyph unicode="&#xac;" d="M0 614v205h819v-409h-205v204h-614z" />
<glyph unicode="&#xad;" horiz-adv-x="614" d="M0 614v205h410v-205h-410z" />
<glyph unicode="&#xae;" horiz-adv-x="1433" d="M0 0v1434h1229v-1434h-1229zM205 205h819v1024h-819v-1024zM410 410v614h409v-205h-205v-409h-204z" />
<glyph unicode="&#xaf;" d="M0 1638v205h819v-205h-819z" />
<glyph unicode="&#xb0;" horiz-adv-x="819" d="M0 1229v614h614v-614h-614zM205 1434h205v204h-205v-204z" />
<glyph unicode="&#xb1;" horiz-adv-x="1228" d="M0 0v205h1024v-205h-1024zM0 819v205h410v410h204v-410h410v-205h-410v-409h-204v409h-410z" />
<glyph unicode="&#xb2;" horiz-adv-x="819" d="M0 819v615h410v204h-410v205h614v-614h-409v-205h409v-205h-614z" />
<glyph unicode="&#xb3;" horiz-adv-x="819" d="M0 819v205h410v205h-410v205h410v204h-410v205h614v-1024h-614z" />
<glyph unicode="&#xb4;" horiz-adv-x="614" d="M0 1434v204h205v-204h-205zM205 1638v205h205v-205h-205z" />
<glyph unicode="&#xb5;" d="M0 -203v1637h205v-1229h409v1229h205v-1434h-614v-203h-205z" />
<glyph unicode="&#xb6;" horiz-adv-x="1228" d="M0 614v820h1024v-1434h-205v1229h-205v-1229h-204v614h-410z" />
<glyph unicode="&#xb7;" horiz-adv-x="409" d="M0 614v205h205v-205h-205z" />
<glyph unicode="&#xb8;" horiz-adv-x="614" d="M0 0h205v205h205v-408h-410v203z" />
<glyph unicode="&#xb9;" horiz-adv-x="614" d="M0 1638v205h410v-1024h-205v819h-205z" />
<glyph unicode="&#xba;" horiz-adv-x="819" d="M0 819v1024h614v-1024h-614zM205 1024h205v614h-205v-614z" />
<glyph unicode="&#xbb;" d="M0 410v204h205v-204h-205zM0 819v205h205v-205h205v-205h204v-204h-204v204h-205v205h-205zM410 819v205h204v-205h205v-205h-205v205h-204z" />
<glyph unicode="&#xbc;" horiz-adv-x="1638" d="M0 1434v204h410v-819h-205v615h-205zM205 0v410h205v-410h-205zM410 410v204h204v-204h-204zM614 614v205h205v-205h205v-409h205v409h205v-817h-205v203h-410v614h-205zM819 819v205h205v-205h-205zM1024 1024v410h205v-410h-205z" />
<glyph unicode="&#xbd;" horiz-adv-x="1638" d="M0 1434v204h410v-819h-205v615h-205zM205 0v410h205v-410h-205zM410 410v204h204v-204h-204zM614 614v205h205v-205h615v-409h-205v205h-410v204h-205zM819 -203v408h410v-205h205v-203h-615zM819 819v205h205v-205h-205zM1024 1024v410h205v-410h-205z" />
<glyph unicode="&#xbe;" horiz-adv-x="1638" d="M0 819v205h410v205h-205v205h-205v204h614v-819h205v-205h205v-409h205v409h205v-817h-205v203h-410v614h-205v205h-614zM205 0v410h205v-410h-205zM410 410v204h204v-204h-204zM819 819v205h205v-205h-205zM1024 1024v410h205v-410h-205z" />
<glyph unicode="&#xbf;" d="M0 0v819h410v205h204v-410h-409v-409h409v205h205v-410h-819zM410 1229v205h204v-205h-204z" />
<glyph unicode="&#xc0;" d="M0 0v1229h819v-1229h-205v614h-409v-614h-205zM205 819h409v205h-409v-205zM205 1638v205h205v-205h204v-204h-204v204h-205z" />
<glyph unicode="&#xc1;" d="M0 0v1229h819v-1229h-205v614h-409v-614h-205zM205 819h409v205h-409v-205zM205 1434v204h205v-204h-205zM410 1638v205h204v-205h-204z" />
<glyph unicode="&#xc2;" d="M0 0v1229h819v-1229h-205v614h-409v-614h-205zM0 1434v204h205v-204h-205zM205 819h409v205h-409v-205zM205 1638v205h409v-205h205v-204h-205v204h-409z" />
<glyph unicode="&#xc3;" d="M0 0v1229h819v-1229h-205v614h-409v-614h-205zM0 1434v409h410v-205h204v205h205v-409h-409v204h-205v-204h-205zM205 819h409v205h-409v-205z" />
<glyph unicode="&#xc4;" d="M0 0v1434h819v-1434h-205v614h-409v-614h-205zM0 1638v205h205v-205h-205zM205 819h409v410h-409v-410zM614 1638v205h205v-205h-205z" />
<glyph unicode="&#xc5;" d="M0 0v1843h819v-1843h-205v614h-409v-614h-205zM205 819h409v410h-409v-410zM205 1434h409v204h-409v-204z" />
<glyph unicode="&#xc6;" horiz-adv-x="1228" d="M0 0v1434h1024v-410h-205v205h-205v-410h410v-205h-410v-409h205v205h205v-410h-614v614h-205v-614h-205zM205 819h205v410h-205v-410z" />
<glyph unicode="&#xc7;" d="M0 205v1229h819v-410h-205v205h-409v-819h409v204h205v-409h-205v-408h-409v203h205v205h-410z" />
<glyph unicode="&#xc8;" d="M0 0v1229h819v-205h-614v-205h409v-205h-409v-409h409v205h205v-410h-819zM205 1638v205h205v-205h204v-204h-204v204h-205z" />
<glyph unicode="&#xc9;" d="M0 0v1229h819v-205h-614v-205h409v-205h-409v-409h409v205h205v-410h-819zM205 1434v204h205v-204h-205zM410 1638v205h204v-205h-204z" />
<glyph unicode="&#xca;" d="M0 0v1229h819v-205h-614v-205h409v-205h-409v-409h409v205h205v-410h-819zM0 1434v204h205v-204h-205zM205 1638v205h409v-205h205v-204h-205v204h-409z" />
<glyph unicode="&#xcb;" d="M0 0v1434h819v-410h-205v205h-409v-410h409v-205h-409v-409h409v205h205v-410h-819zM0 1638v205h205v-205h-205zM614 1638v205h205v-205h-205z" />
<glyph unicode="&#xcc;" horiz-adv-x="819" d="M0 0v205h205v819h-205v205h614v-205h-204v-819h204v-205h-614zM0 1638v205h205v-205h205v-204h-205v204h-205z" />
<glyph unicode="&#xcd;" horiz-adv-x="819" d="M0 0v205h205v819h-205v205h614v-205h-204v-819h204v-205h-614zM205 1434v204h205v-204h-205zM410 1638v205h204v-205h-204z" />
<glyph unicode="&#xce;" horiz-adv-x="819" d="M0 0v205h205v819h-205v205h614v-205h-204v-819h204v-205h-614zM0 1434v204h205v-204h-205zM205 1638v205h205v-205h204v-204h-204v204h-205z" />
<glyph unicode="&#xcf;" horiz-adv-x="819" d="M0 0v205h205v1024h-205v205h614v-205h-204v-1024h204v-205h-614zM0 1638v205h205v-205h-205zM410 1638v205h204v-205h-204z" />
<glyph unicode="&#xd0;" horiz-adv-x="1228" d="M0 614v205h205v615h614v-205h205v-1024h-205v1024h-409v-410h204v-205h-204v-409h409v-205h-614v614h-205z" />
<glyph unicode="&#xd1;" d="M0 0v1229h819v-1229h-205v1024h-409v-1024h-205zM0 1434v409h410v-205h204v205h205v-409h-409v204h-205v-204h-205z" />
<glyph unicode="&#xd2;" d="M0 0v1229h819v-1229h-819zM205 205h409v819h-409v-819zM205 1638v205h205v-205h204v-204h-204v204h-205z" />
<glyph unicode="&#xd3;" d="M0 0v1229h819v-1229h-819zM205 205h409v819h-409v-819zM205 1434v204h205v-204h-205zM410 1638v205h204v-205h-204z" />
<glyph unicode="&#xd4;" d="M0 0v1229h819v-1229h-819zM0 1434v204h205v-204h-205zM205 205h409v819h-409v-819zM205 1638v205h409v-205h205v-204h-205v204h-409z" />
<glyph unicode="&#xd5;" d="M0 0v1229h819v-1229h-819zM0 1434v409h410v-205h204v205h205v-409h-409v204h-205v-204h-205zM205 205h409v819h-409v-819z" />
<glyph unicode="&#xd6;" d="M0 0v1434h819v-1434h-819zM0 1638v205h205v-205h-205zM205 205h409v1024h-409v-1024zM614 1638v205h205v-205h-205z" />
<glyph unicode="&#xd7;" horiz-adv-x="819" d="M0 410v204h205v-204h-205zM0 819v205h205v-205h205v-205h204v-204h-204v204h-205v205h-205zM410 819v205h204v-205h-204z" />
<glyph unicode="&#xd8;" d="M0 -203v1637h614v204h205v-1638h-614v-203h-205zM205 205h409v409h-204v-204h-205v-205zM205 819h205v205h204v205h-409v-410z" />
<glyph unicode="&#xd9;" d="M0 0v1434h205v-1229h409v1229h-204v204h-205v205h205v-205h204v-204h205v-1434h-819z" />
<glyph unicode="&#xda;" d="M0 0v1434h205v-1229h409v1229h205v-1434h-819zM205 1434v204h205v-204h-205zM410 1638v205h204v-205h-204z" />
<glyph unicode="&#xdb;" d="M0 0v1229h205v-1024h409v1024h205v-1229h-819zM0 1434v204h205v-204h-205zM205 1638v205h409v-205h205v-204h-205v204h-409z" />
<glyph unicode="&#xdc;" d="M0 0v1434h205v-1229h409v1229h205v-1434h-819zM0 1638v205h205v-205h-205zM614 1638v205h205v-205h-205z" />
<glyph unicode="&#xdd;" d="M0 0v410h205v-205h409v409h-614v820h205v-615h409v615h205v-1434h-819zM205 1434v204h205v-204h-205zM410 1638v205h204v-205h-204z" />
<glyph unicode="&#xde;" d="M0 0v1434h205v-205h614v-1024h-614v-205h-205zM205 410h409v614h-409v-614z" />
<glyph unicode="&#xdf;" d="M0 0v1434h819v-615h-205v-205h205v-614h-409v205h204v409h-409v-614h-205zM205 819h409v410h-409v-410z" />
<glyph unicode="&#xe0;" d="M0 0v614h614v205h-614v205h819v-1024h-819zM205 205h409v205h-409v-205zM205 1434v204h205v-204h204v-205h-204v205h-205z" />
<glyph unicode="&#xe1;" d="M0 0v614h614v205h-614v205h819v-1024h-819zM205 205h409v205h-409v-205zM205 1229v205h205v-205h-205zM410 1434v204h204v-204h-204z" />
<glyph unicode="&#xe2;" d="M0 0v614h614v205h-614v205h819v-1024h-819zM0 1229v205h205v-205h-205zM205 205h409v205h-409v-205zM205 1434v204h409v-204h205v-205h-205v205h-409z" />
<glyph unicode="&#xe3;" d="M0 0v614h614v205h-614v205h819v-1024h-819zM0 1229v409h410v-204h204v204h205v-409h-409v205h-205v-205h-205zM205 205h409v205h-409v-205z" />
<glyph unicode="&#xe4;" d="M0 0v614h614v205h-614v205h819v-1024h-819zM0 1229v205h205v-205h-205zM205 205h409v205h-409v-205zM614 1229v205h205v-205h-205z" />
<glyph unicode="&#xe5;" d="M0 0v614h614v205h-614v205h819v-1024h-819zM0 1229v614h819v-614h-819zM205 205h409v205h-409v-205zM205 1434h409v204h-409v-204z" />
<glyph unicode="&#xe6;" horiz-adv-x="1228" d="M0 0v614h410v205h-410v205h1024v-614h-410v-205h410v-205h-1024zM205 205h205v205h-205v-205zM614 614h205v205h-205v-205z" />
<glyph unicode="&#xe7;" d="M0 205v819h819v-205h-614v-409h614v-205h-205v-408h-409v203h205v205h-410z" />
<glyph unicode="&#xe8;" d="M0 0v1024h819v-614h-614v-205h614v-205h-819zM205 614h409v205h-409v-205zM205 1434v204h205v-204h204v-205h-204v205h-205z" />
<glyph unicode="&#xe9;" d="M0 0v1024h819v-614h-614v-205h614v-205h-819zM205 614h409v205h-409v-205zM205 1229v205h205v-205h-205zM410 1434v204h204v-204h-204z" />
<glyph unicode="&#xea;" d="M0 0v1024h819v-614h-614v-205h614v-205h-819zM0 1229v205h205v-205h-205zM205 614h409v205h-409v-205zM205 1434v204h409v-204h205v-205h-205v205h-409z" />
<glyph unicode="&#xeb;" d="M0 0v1024h819v-614h-614v-205h614v-205h-819zM0 1229v205h205v-205h-205zM205 614h409v205h-409v-205zM614 1229v205h205v-205h-205z" />
<glyph unicode="&#xec;" horiz-adv-x="614" d="M0 1434v204h205v-204h205v-205h-205v205h-205zM205 0v1024h205v-1024h-205z" />
<glyph unicode="&#xed;" horiz-adv-x="409" d="M0 0v1024h205v-1024h-205zM0 1229v205h205v-205h-205zM205 1434v204h205v-204h-205z" />
<glyph unicode="&#xee;" horiz-adv-x="614" d="M0 1229v205h205v-205h-205zM205 0v1024h205v-1024h-205zM205 1434v204h205v-204h204v-205h-204v205h-205z" />
<glyph unicode="&#xef;" horiz-adv-x="614" d="M0 1229v205h205v-205h-205zM205 0v1024h205v-1024h-205zM410 1229v205h204v-205h-204z" />
<glyph unicode="&#xf0;" d="M0 0v819h614v410h-204v205h-205v204h205v-204h204v-205h205v-1229h-819zM205 205h409v409h-409v-409zM205 1024v205h205v-205h-205zM614 1434v204h205v-204h-205z" />
<glyph unicode="&#xf1;" d="M0 0v1024h819v-1024h-205v819h-409v-819h-205zM0 1229v409h410v-204h204v204h205v-409h-409v205h-205v-205h-205z" />
<glyph unicode="&#xf2;" d="M0 0v1024h819v-1024h-819zM205 205h409v614h-409v-614zM205 1434v204h205v-204h204v-205h-204v205h-205z" />
<glyph unicode="&#xf3;" d="M0 0v1024h819v-1024h-819zM205 205h409v614h-409v-614zM205 1229v205h205v-205h-205zM410 1434v204h204v-204h-204z" />
<glyph unicode="&#xf4;" d="M0 0v1024h819v-1024h-819zM0 1229v205h205v-205h-205zM205 205h409v614h-409v-614zM205 1434v204h409v-204h205v-205h-205v205h-409z" />
<glyph unicode="&#xf5;" d="M0 0v1024h819v-1024h-819zM0 1229v409h410v-204h204v204h205v-409h-409v205h-205v-205h-205zM205 205h409v614h-409v-614z" />
<glyph unicode="&#xf6;" d="M0 0v1024h819v-1024h-819zM0 1229v205h205v-205h-205zM205 205h409v614h-409v-614zM614 1229v205h205v-205h-205z" />
<glyph unicode="&#xf7;" horiz-adv-x="819" d="M0 614v205h614v-205h-614zM205 205v205h205v-205h-205zM205 1024v205h205v-205h-205z" />
<glyph unicode="&#xf8;" d="M0 -203v1227h614v205h205v-1229h-614v-203h-205zM205 205h409v205h-409v-205zM205 614h409v205h-409v-205z" />
<glyph unicode="&#xf9;" d="M0 0v1024h205v-819h409v819h205v-1024h-819zM205 1434v204h205v-204h204v-205h-204v205h-205z" />
<glyph unicode="&#xfa;" d="M0 0v1024h205v-819h409v819h205v-1024h-819zM205 1229v205h205v-205h-205zM410 1434v204h204v-204h-204z" />
<glyph unicode="&#xfb;" d="M0 0v1024h205v-819h409v819h205v-1024h-819zM0 1229v205h205v-205h-205zM205 1434v204h409v-204h205v-205h-205v205h-409z" />
<glyph unicode="&#xfc;" d="M0 0v1024h205v-819h409v819h205v-1024h-819zM0 1229v205h205v-205h-205zM614 1229v205h205v-205h-205z" />
<glyph unicode="&#xfd;" d="M0 0h614v205h-614v819h205v-614h409v614h205v-1227h-819v203zM205 1229v205h205v-205h-205zM410 1434v204h204v-204h-204z" />
<glyph unicode="&#xfe;" d="M0 -203v1841h205v-409h614v-1024h-614v-408h-205zM205 410h409v614h-409v-614z" />
<glyph unicode="&#xff;" d="M0 0h614v205h-614v819h205v-614h409v614h205v-1227h-819v203zM0 1229v205h205v-205h-205zM614 1229v205h205v-205h-205z" />
<glyph unicode="&#x152;" horiz-adv-x="1228" d="M0 0v1434h1024v-410h-205v205h-205v-410h410v-205h-410v-409h205v205h205v-410h-1024zM205 205h205v1024h-205v-1024z" />
<glyph unicode="&#x153;" horiz-adv-x="1228" d="M0 0v1024h1024v-614h-410v-205h410v-205h-1024zM205 205h205v614h-205v-614zM614 614h205v205h-205v-205z" />
<glyph unicode="&#x178;" d="M0 0v410h205v-205h409v409h-614v820h205v-615h409v615h205v-1434h-819zM0 1638v205h205v-205h-205zM614 1638v205h205v-205h-205z" />
<glyph unicode="&#x2c6;" d="M0 1434v204h205v-204h-205zM205 1638v205h409v-205h205v-204h-205v204h-409z" />
<glyph unicode="&#x2dc;" d="M0 1434v409h410v-205h204v205h205v-409h-409v204h-205v-204h-205z" />
<glyph unicode="&#x2000;" horiz-adv-x="921" />
<glyph unicode="&#x2001;" horiz-adv-x="1843" />
<glyph unicode="&#x2002;" horiz-adv-x="921" />
<glyph unicode="&#x2003;" horiz-adv-x="1843" />
<glyph unicode="&#x2004;" horiz-adv-x="614" />
<glyph unicode="&#x2005;" horiz-adv-x="460" />
<glyph unicode="&#x2006;" horiz-adv-x="307" />
<glyph unicode="&#x2007;" horiz-adv-x="307" />
<glyph unicode="&#x2008;" horiz-adv-x="230" />
<glyph unicode="&#x2009;" horiz-adv-x="368" />
<glyph unicode="&#x200a;" horiz-adv-x="102" />
<glyph unicode="&#x2010;" d="M0 614v205h819v-205h-819z" />
<glyph unicode="&#x2011;" d="M0 614v205h819v-205h-819z" />
<glyph unicode="&#x2012;" d="M0 614v205h819v-205h-819z" />
<glyph unicode="&#x2013;" horiz-adv-x="819" d="M0 614v205h614v-205h-614z" />
<glyph unicode="&#x2014;" horiz-adv-x="1228" d="M0 614v205h1024v-205h-1024z" />
<glyph unicode="&#x2018;" horiz-adv-x="614" d="M0 1229v409h205v-204h205v-205h-410z" />
<glyph unicode="&#x2019;" horiz-adv-x="614" d="M0 1434v204h410v-409h-205v205h-205z" />
<glyph unicode="&#x201a;" horiz-adv-x="409" d="M0 -203v408h205v-408h-205z" />
<glyph unicode="&#x201c;" horiz-adv-x="1228" d="M0 1229v409h205v-204h205v-205h-410zM614 1229v409h205v-204h205v-205h-410z" />
<glyph unicode="&#x201d;" horiz-adv-x="1228" d="M0 1434v204h410v-409h-205v205h-205zM614 1434v204h410v-409h-205v205h-205z" />
<glyph unicode="&#x201e;" horiz-adv-x="819" d="M0 -203v408h205v-408h-205zM410 -203v408h204v-408h-204z" />
<glyph unicode="&#x2022;" horiz-adv-x="819" d="M0 410v614h614v-614h-614z" />
<glyph unicode="&#x2026;" horiz-adv-x="1228" d="M0 0v205h205v-205h-205zM410 0v205h204v-205h-204zM819 0v205h205v-205h-205z" />
<glyph unicode="&#x202f;" horiz-adv-x="368" />
<glyph unicode="&#x2039;" horiz-adv-x="614" d="M0 614v205h205v-205h205v-204h-205v204h-205zM205 819v205h205v-205h-205z" />
<glyph unicode="&#x203a;" horiz-adv-x="614" d="M0 410v204h205v-204h-205zM0 819v205h205v-205h205v-205h-205v205h-205z" />
<glyph unicode="&#x205f;" horiz-adv-x="460" />
<glyph unicode="&#x2122;" horiz-adv-x="1228" d="M0 0v614h1024v-614h-205v410h-205v-410h-204v410h-205v-410h-205zM0 1229v205h1024v-205h-410v-410h-204v410h-410z" />
<glyph unicode="&#x25fc;" d="M0 0v1024h1024v-1024h-1024z" />
</font>
</defs>
</svg>
